<svg width="25" height="25" viewBox="0 0 25 25" fill="none" xmlns="http://www.w3.org/2000/svg">
<path d="M4.59546 8.26953H2.59546V20.2695C2.59546 20.8 2.80617 21.3087 3.18125 21.6837C3.55632 22.0588 4.06503 22.2695 4.59546 22.2695H16.5955V20.2695H4.59546V8.26953Z" fill="#B0B0B0"/>
<path d="M20.5955 2.26953H8.59546C8.06503 2.26953 7.55632 2.48024 7.18125 2.85532C6.80617 3.23039 6.59546 3.7391 6.59546 4.26953V16.2695C6.59546 16.8 6.80617 17.3087 7.18125 17.6837C7.55632 18.0588 8.06503 18.2695 8.59546 18.2695H20.5955C21.1259 18.2695 21.6346 18.0588 22.0097 17.6837C22.3847 17.3087 22.5955 16.8 22.5955 16.2695V4.26953C22.5955 3.7391 22.3847 3.23039 22.0097 2.85532C21.6346 2.48024 21.1259 2.26953 20.5955 2.26953ZM11.5955 14.2695V6.26953L18.5955 10.2695L11.5955 14.2695Z" fill="#B0B0B0"/>
</svg>
